<svg
  width="324"
  height="72"
  viewBox="0 0 324 72"
  xmlns="http://www.w3.org/2000/svg"
  fill="none"
  color="#5c26b4"
>

  <!-- Icon Group -->
  <g transform="translate(8,12)" stroke="currentColor" stroke-width="3" fill="none">

    <!-- Pool Waves -->
    <path d="M0 28 C6 24, 12 32, 18 28 C24 24, 30 32, 36 28" />
    <path d="M0 34 C6 30, 12 38, 18 34 C24 30, 30 38, 36 34" />

    <!-- Pool Ladder -->
    <line x1="6" y1="0" x2="6" y2="26" />
    <line x1="16" y1="0" x2="16" y2="26" />
    <line x1="6" y1="8" x2="16" y2="8" />
    <line x1="6" y1="16" x2="16" y2="16" />

    <!-- Beverage Glass -->
    <path d="M26 6 L32 26 L40 26 L46 6 Z" />
    <line x1="36" y1="0" x2="42" y2="10" /> <!-- Straw -->

  </g>

  <!-- Brand Text -->
  <text
    x="70"
    y="46"
    font-family="Arial, Helvetica, sans-serif"
    font-size="32"
    font-weight="700"
    fill="currentColor"
    letter-spacing="1"
  >
    MyPoolParty
  </text>

  <!-- Tagline -->
  <text
    x="72"
    y="64"
    font-family="Arial, Helvetica, sans-serif"
    font-size="12"
    fill="currentColor"
    opacity="0.7"
  >
    Pool Party Booking
  </text>

</svg>
